<svg width="30" height="30" viewBox="0 0 30 30" fill="none" xmlns="http://www.w3.org/2000/svg">
<path d="M27.1875 25.8618L20.1074 18.7817C21.8087 16.7392 22.657 14.1194 22.476 11.4674C22.295 8.81536 21.0984 6.33521 19.1354 4.54289C17.1723 2.75057 14.5938 1.78408 11.9362 1.84447C9.27871 1.90486 6.74676 2.98748 4.86712 4.86712C2.98748 6.74676 1.90486 9.2787 1.84447 11.9362C1.78408 14.5938 2.75057 17.1723 4.54289 19.1354C6.33521 21.0984 8.81536 22.295 11.4674 22.476C14.1194 22.657 16.7392 21.8087 18.7817 20.1074L25.8618 27.1875L27.1875 25.8618ZM3.74998 12.1875C3.74998 10.5187 4.24483 8.88739 5.17195 7.49985C6.09908 6.11231 7.41683 5.03086 8.95859 4.39224C10.5003 3.75363 12.1968 3.58654 13.8336 3.9121C15.4703 4.23766 16.9737 5.04126 18.1537 6.22126C19.3337 7.40127 20.1373 8.90469 20.4629 10.5414C20.7884 12.1781 20.6213 13.8746 19.9827 15.4164C19.3441 16.9581 18.2626 18.2759 16.8751 19.203C15.4876 20.1301 13.8563 20.625 12.1875 20.625C9.95047 20.6225 7.80581 19.7327 6.224 18.1509C4.6422 16.5691 3.75246 14.4245 3.74998 12.1875Z" fill="#60B847"/>
</svg>
